<?xml version="1.0" encoding="UTF-8" standalone="no"?>
<svg
   width="512"
   height="512"
   version="1.1"
   viewBox="0 0 135.47 135.47"
   id="svg6008"
   sodipodi:docname="new.svg"
   inkscape:version="1.2.2 (b0a8486541, 2022-12-01)"
   xmlns:inkscape="http://www.inkscape.org/namespaces/inkscape"
   xmlns:sodipodi="http://sodipodi.sourceforge.net/DTD/sodipodi-0.dtd"
   xmlns="http://www.w3.org/2000/svg"
   xmlns:svg="http://www.w3.org/2000/svg">
  <sodipodi:namedview
     id="namedview6010"
     pagecolor="#414141"
     bordercolor="#000000"
     borderopacity="0.25"
     inkscape:showpageshadow="2"
     inkscape:pageopacity="0"
     inkscape:pagecheckerboard="0"
     inkscape:deskcolor="#d1d1d1"
     showgrid="false"
     inkscape:zoom="0.92813297"
     inkscape:cx="262.35465"
     inkscape:cy="256.42877"
     inkscape:window-width="1362"
     inkscape:window-height="689"
     inkscape:window-x="0"
     inkscape:window-y="0"
     inkscape:window-maximized="1"
     inkscape:current-layer="svg6008" />
  <defs
     id="defs5990">
    <linearGradient
       id="c"
       x1="112.19"
       x2="420.68"
       y1="437.78"
       y2="120.4"
       gradientTransform="matrix(0.74655,0,0,0.7729,133.47,67.168)"
       gradientUnits="userSpaceOnUse">
      <stop
         stop-color="#b8174c"
         offset="0"
         id="stop5966" />
      <stop
         stop-color="#fd3535"
         offset="1"
         id="stop5968" />
    </linearGradient>
    <linearGradient
       id="b"
       x1="112.44"
       x2="420.68"
       y1="451.9"
       y2="120.4"
       gradientTransform="matrix(0.74655,0,0,0.7729,133.47,67.168)"
       gradientUnits="userSpaceOnUse">
      <stop
         stop-color="#249eff"
         offset="0"
         id="stop5971" />
      <stop
         stop-color="#2777ff"
         offset="1"
         id="stop5973" />
    </linearGradient>
    <clipPath
       id="g">
      <path
         d="m111 119h177v23h-177z"
         id="path5976" />
    </clipPath>
    <clipPath
       id="f">
      <path
         d="m177 130h45v89h-45z"
         id="path5979" />
    </clipPath>
    <clipPath
       id="e">
      <path
         d="m111 207h177v89h-177z"
         id="path5982" />
    </clipPath>
    <clipPath
       id="h">
      <rect
         width="384"
         height="384"
         id="rect5985" />
    </clipPath>
    <g
       clip-path="url(#h)"
       id="g5988" />
  </defs>
  <g
     style="display:inline;isolation:isolate"
     id="g6768"
     transform="matrix(0.14940525,0.08713426,-0.07185971,0.12327457,0.18995692,-41.194007)"
     inkscape:label="pinephone">
    <g
       style="display:inline;isolation:isolate"
       id="g1360"
       transform="matrix(1.0444444,-6.3677456e-6,-4.1463506e-6,1.0255319,-28.442565,-10.41831)"
       inkscape:label="pinephone_outline">
      <path
         d="m 843.73476,141.76272 v 0 c 3.208,4e-5 5.81302,2.69089 5.81304,6.00458 l 6.8e-4,97.12895 c 2e-5,3.31369 -2.60496,6.00448 -5.81296,6.00445 v 0 c -3.208,-4e-5 -5.81202,-2.69089 -5.81204,-6.00458 l -6.8e-4,-97.12895 c -2e-5,-3.31369 2.60396,-6.00449 5.81196,-6.00445 z"
         style="display:inline;fill:#ffffff;fill-opacity:1;stroke:none;stroke-width:1.01634;stroke-miterlimit:10"
         id="path1348"
         inkscape:label="vol_btn" />
      <path
         d="m 842.009,278.25 3.45,1.2e-4 c 2.256,7e-5 4.08804,2.01527 4.08809,4.4968 l 9.6e-4,48.47989 c 6e-5,2.48151 -1.83191,4.49659 -4.08791,4.49651 l -3.45,-1.1e-4 c -2.256,-8e-5 -4.08703,-2.01528 -4.08709,-4.4968 l -9.6e-4,-48.47989 c -5e-5,-2.48152 1.83091,-4.4966 4.08691,-4.49652 z"
         style="display:inline;fill:#ffffff;fill-opacity:1;stroke:none;stroke-width:1.0488;stroke-miterlimit:10"
         id="path1350"
         inkscape:label="power_btn" />
      <path
         d="m 513.561,0 h 280.347 c 28.569,0 51.764,23.195 51.764,51.764 v 735.472 c 0,28.569 -23.195,51.764 -51.764,51.764 H 513.561 c -28.569,0 -51.764,-23.195 -51.764,-51.764 V 51.764 C 461.797,23.195 484.992,0 513.561,0 Z"
         style="display:inline;fill:#ffffff;fill-opacity:1;stroke:none;stroke-miterlimit:10"
         id="path1352"
         inkscape:label="base" />
    </g>
    <path
       d="m 843.734,138.281 v 0 c 3.208,0 5.813,2.605 5.813,5.813 v 94.031 c 0,3.208 -2.605,5.813 -5.813,5.813 v 0 c -3.208,0 -5.812,-2.605 -5.812,-5.813 v -94.031 c 0,-3.208 2.604,-5.813 5.812,-5.813 z"
       style="display:inline;fill:#000000;fill-opacity:1;stroke:none;stroke-miterlimit:10"
       id="path6756"
       inkscape:label="vol_btn" />
    <path
       d="m 842.009,278.25 h 3.45 c 2.256,0 4.088,1.832 4.088,4.088 v 44.074 c 0,2.256 -1.832,4.088 -4.088,4.088 h -3.45 c -2.256,0 -4.087,-1.832 -4.087,-4.088 v -44.074 c 0,-2.256 1.831,-4.088 4.087,-4.088 z"
       style="display:inline;fill:#000000;fill-opacity:1;stroke:none;stroke-miterlimit:10"
       id="path6758"
       inkscape:label="power_btn" />
    <path
       d="m 513.561,0 h 280.347 c 28.569,0 51.764,23.195 51.764,51.764 v 735.472 c 0,28.569 -23.195,51.764 -51.764,51.764 H 513.561 c -28.569,0 -51.764,-23.195 -51.764,-51.764 V 51.764 C 461.797,23.195 484.992,0 513.561,0 Z"
       style="display:inline;fill:#000000;fill-opacity:1;stroke:none;stroke-miterlimit:10"
       id="path6760"
       inkscape:label="base" />
    <rect
       x="472.09799"
       y="58.916"
       width="362.42599"
       height="725.04498"
       fill="#000000"
       id="rect6762"
       style="display:inline;fill:#000000;fill-opacity:1"
       inkscape:label="display" />
    <circle
       vector-effect="non-scaling-stroke"
       cx="714.99219"
       cy="32.320312"
       fill="#3b3e43"
       id="circle6764"
       style="display:inline;fill:#878787;fill-opacity:1"
       r="8.5078125"
       inkscape:label="cam" />
    <path
       d="m 634.133,27.469 h 41.625 c 2.212,0 4.008,1.796 4.008,4.008 v 0 c 0,2.212 -1.796,4.007 -4.008,4.007 h -41.625 c -2.212,0 -4.008,-1.795 -4.008,-4.007 v 0 c 0,-2.212 1.796,-4.008 4.008,-4.008 z"
       style="display:inline;fill:#878787;fill-opacity:1;stroke:none;stroke-miterlimit:10"
       id="path6766"
       inkscape:label="speaker" />
  </g>
  <g
     transform="matrix(0.8408309,-0.08744467,0.07277064,1.0103825,-4.2933543,-169.45786)"
     id="g6006"
     style="display:inline"
     inkscape:label="dragon">
    <path
       d="m 12.348,174.74 c -0.47917,0.0755 -1.1287,0.37944 -2.043,1.293 v 0.002 c -0.63747,0.63743 -1.2133,1.8331 -1.2188,2.9102 -0.00542,1.077 0.37644,1.8405 0.69141,2.3262 0.62993,0.97132 1.1302,1.2366 1.5742,1.5215 0.8881,0.56985 1.7052,0.88082 2.6777,1.1738 h 0.002 c 2.3167,0.69797 9.3026,3.7973 16.369,7.3359 5.8129,2.9108 11.181,5.9404 15.629,8.5703 0.04403,0.78265 0.22146,1.3266 0.38281,1.7188 0.03557,0.0865 0.10199,0.16844 0.13867,0.25195 -0.83219,-0.27581 -1.7341,-0.44134 -2.1895,-0.67187 -2.0713,-1.0486 -4.3105,-1.6727 -6.4297,-1.9746 -1.0596,-0.15096 -2.074,-0.2236 -3.1367,-0.13672 -1.0628,0.0869 -2.3182,0.0702 -3.8398,1.5918 -0.83194,0.83193 -1.22,2.1379 -1.2051,2.9922 0.01492,0.8543 0.23242,1.3699 0.41016,1.7559 0.14589,0.31679 0.27106,0.39902 0.4082,0.60157 -0.66896,0.0699 -1.157,0.23895 -1.834,0.25 -2.486,0.0406 -4.8117,0.42454 -6.8457,1.1387 -2.034,0.71412 -4.2704,1.3832 -5.3066,4.5644 -0.16284,0.50031 -0.35369,1.1496 -0.19336,2.1777 0.16034,1.0281 1.0458,2.465 2.1562,3.0664 0.05076,0.0275 0.06763,0.004 0.11719,0.0293 -0.03083,0.006 -0.05422,0.0749 -0.08984,0.082 -2.5604,0.51212 -4.3291,1.6141 -6.0957,3.3066 -1.4238,1.364 -2.4634,2.4975 -2.9824,4.627 -0.12976,0.53238 -0.23874,1.1765 -0.085937,2.0566 0.15281,0.88012 0.73239,2.0737 1.7246,2.8008 0.68232,0.5 1.3113,0.70203 1.9102,0.80664 -0.40314,1.1599 -1.2568,3.1527 -1.7988,3.9375 -1.116,1.616 -1.9151,3.1545 -2.3535,4.8105 -0.2192,0.82801 -0.45581,1.6674 -0.12891,3.0781 0.16345,0.70537 0.55404,1.6411 1.4082,2.3984 0.85416,0.75735 2.0706,1.1152 2.9688,1.1152 0.0099,0 0.01166,-0.004 0.02148,-0.004 0.30265,2.8563 0.82621,5.4969 2.0234,8.2207 1.384,3.1487 3.4542,6.401 6.7187,11.162 2.166,3.1589 4.3773,6.579 6.082,9.3574 0.85239,1.3892 1.58,2.6207 2.0996,3.5527 0.51965,0.93203 0.87978,1.8485 0.73633,1.3965 0.52282,1.649 2.0534,2.7694 3.7832,2.7695 h 37.479 c 3.3106,-8.8e-4 5.1653,-3.8158 3.1211,-6.4199 -0.22367,-0.28483 -0.88966,-1.4365 -1.8828,-3.418 -4.3759,-8.7303 -10.097,-14.854 -18.924,-20.342 -4.6902,-2.916 -7.6662,-5.4751 -9.3848,-7.8379 -1.7186,-2.3628 -2.3803,-4.5135 -2.4082,-7.6152 -0.01782,-1.9768 0.23408,-2.7946 0.58398,-3.3574 0.3499,-0.56283 1.0859,-1.263 2.9844,-2.2559 2.1119,-1.1045 5.4609,-1.4032 10.219,-0.15624 4.7579,1.2469 10.731,4.007 17.539,8.3066 1.522,0.96128 1.6384,1.1908 1.4941,0.9414 -0.14426,-0.24939 0.08372,0.32036 0.29492,2.3652 0.14816,1.4352 0.4324,2.8645 0.79883,4.1719 0.36643,1.3074 0.63053,2.355 1.5977,3.7031 0.86778,1.2096 1.3602,1.4069 2.0996,1.9453 0.73943,0.53839 1.6147,1.1138 2.623,1.7402 2.0166,1.2528 4.5472,2.6878 7.2051,4.0664 10.123997,5.2512 14.093997,8.015 19.774997,13.703 1.1619,1.1633 2.2741,2.1876 3.2324,2.9785 0.47915,0.39547 0.90253,0.7255 1.3965,1.0449 0.24697,0.15971 0.4937,0.31945 0.94335,0.50977 0.44966,0.19031 1.1022,0.94938 3.2734,0.0391 1.5865,-0.66522 2.1969,-1.2645 3.5098,-2.2188 1.3129,-0.9543 2.8311,-2.1203 4.2891,-3.2812 1.458,-1.1609 2.8435,-2.3046 3.9102,-3.248 0.53331,-0.47172 0.97695,-0.87837 1.3848,-1.3027 0.20391,-0.21218 0.39129,-0.40323 0.66602,-0.78906 0.13736,-0.19292 0.30699,-0.4119 0.52148,-0.95508 0.2145,-0.54319 0.76956,-1.8616 -0.31054,-3.6094 -1.4318,-2.3167 -2.3732,-1.9483 -3.1621,-2.1523 -0.7889,-0.20403 -1.547,-0.29102 -2.3809,-0.29102 0.89393,0 -0.47489,-0.13559 -1.7617,-0.64453 -1.2868,-0.50894 -2.9378,-1.2609 -4.6152,-2.1035 -3.355,-1.6853 -7.0248,-3.9536 -8.0176,-4.8164 -0.25943,-0.22546 -0.1011,-0.062 -0.28321,-0.24414 0.0821,-0.31565 0.21168,-0.61925 0.23438,-0.94141 0.0872,-1.2376 -0.22036,-2.3221 -0.61914,-3.2344 -0.79757,-1.8246 -1.9891,-3.304 -3.709,-5.3066 -0.60732,-0.70715 -3.1746,-4.552 -4.7695,-7.4551 l -3.0996,-5.6406 c -0.455407,-0.82726 -1.190797,-1.465 -2.074197,-1.7988 -0.15264,-0.72502 -0.38321,-1.0339 -0.51367,-1.2461 -0.18356,-0.29863 -0.33071,-0.4904 -0.48633,-0.68945 -0.31124,-0.39809 -0.65079,-0.78425 -1.0527,-1.2227 -0.80388,-0.8768 -1.8401,-1.925 -2.9863,-3.0156 -19.799,-18.839 -43.704,-33.415 -71.098,-43.402 -1.8198,-0.66344 -3.539,-1.2241 -4.9863,-1.6367 -1.4473,-0.41262 -2.1642,-0.74963 -3.8809,-0.75196 -0.23654,-3.2e-4 -0.54622,-0.15359 -1.0254,-0.0781 z m 7.9902,34.924 c 0.04034,-0.005 0.15966,0.0589 0.20508,0.0566 -0.26345,0.0658 -0.45507,0.0696 -0.79297,0.19922 0.03892,-0.0149 0.1964,-0.20313 0.58789,-0.25586 z m 4.3516,8.043 c 0.12726,0.0267 0.39301,0.0783 0.42969,0.0879 0.05218,0.0136 -0.1052,0.0724 -0.42969,-0.0879 z"
       color="#000000"
       color-rendering="auto"
       dominant-baseline="auto"
       image-rendering="auto"
       shape-rendering="auto"
       solid-color="#000000"
       style="font-variant-ligatures:normal;font-variant-position:normal;font-variant-caps:normal;font-variant-numeric:normal;font-variant-alternates:normal;font-feature-settings:normal;text-indent:0;text-decoration-line:none;text-decoration-style:solid;text-decoration-color:#000000;text-transform:none;text-orientation:mixed;white-space:normal;shape-padding:0;display:inline;isolation:auto;mix-blend-mode:normal"
       id="path6002"
       inkscape:label="outline" />
    <path
       d="m 50.561,65.01 c -0.4981,-6.81e-4 -0.83037,0.06486 -0.9707,0.20508 -1.123,1.1229 2.3888,3.3747 7.8027,5.0059 23.405,7.0512 102.16,46.489 137.38,68.793 36.856,23.343 90.879,65.227 125.92,97.623 17.117,15.823 20.175,17.65 27.98,16.738 4.8196,-0.5627 8.7637,-1.9605 8.7637,-3.1055 0,-1.1449 -6.7358,-8.4903 -14.967,-16.322 -73.265,-69.713 -161.76,-123.71 -263.52,-160.81 -13.149,-4.7937 -24.908,-8.1203 -28.395,-8.125 z m 139.64,77.332 c -0.15697,-0.006 -0.30072,-0.003 -0.43164,0.0117 -2.3041,0.25511 -0.57892,3.8034 5.0664,12.969 9.784,15.885 8.8748,17.821 -7.4356,15.783 -7.6327,-0.9532 -19.546,-4.6018 -26.471,-8.1074 -11.733,-5.9398 -29.555,-8.4782 -33.291,-4.7422 -0.89711,0.89711 2.0388,4.1167 6.5234,7.1562 4.4846,3.0396 8.5964,6.8774 9.1387,8.5312 1.4501,4.4222 -16.519,9.5732 -34.42,9.8652 -15.788,0.25777 -29.963,5.2349 -31.908,11.205 -0.67279,2.0671 0.45182,2.6751 3.082,1.666 2.2776,-0.87349 8.3732,-0.7923 13.551,0.17969 9.0279,1.6936 9.1957,1.9176 4.0977,5.4883 -2.9238,2.0479 -7.7587,7.678 -10.746,12.512 -3.6904,5.9713 -8.1067,9.3201 -13.781,10.455 -4.5936,0.91881 -11.617,4.802 -15.605,8.623 -7.9846,7.6496 -9.8575,15.335 -3.1055,12.744 2.2802,-0.87549 7.1607,-2.3456 10.842,-3.2695 5.8332,-1.464 6.4247,-1.0455 4.6113,3.2637 -1.1444,2.7193 -3.3863,10.216 -4.9824,16.658 -1.5961,6.4416 -6.124,16.376 -10.061,22.076 -6.8347,9.897 -9.3939,19.566 -5.1797,19.566 1.0871,0 3.4386,-2.3422 5.2266,-5.2051 5.5933,-8.9565 7.6115,-5.8323 9.1191,14.102 1.8199,24.063 6.769,35.314 31.146,70.867 16.696,24.351 33.826,52.32 35.635,58.021 h 141.65 c -2.4031,-3.0602 -4.9242,-7.8613 -8.7324,-15.459 -15.537,-30.997 -34.307,-51.143 -66.033,-70.867 -37.211,-23.135 -51.391,-42.629 -51.646,-71.01 -0.16063,-17.819 4.8918,-25.939 21.533,-34.643 25.043,-13.097 66.663,-2.1887 119.87,31.416 11.705,7.3923 12.058,8.0019 13.674,23.643 0.91484,8.8619 3.7476,18.967 6.3242,22.559 2.5826,3.6 20.362,14.646 39.797,24.727 38.816,20.132 56.135,32.165 78.447,54.504 8.2038,8.2134 15.864,14.537 17.023,14.051 6.9354,-2.908 46.925,-34.752 45.842,-36.504 -0.72106,-1.1667 -4.4072,-2.1191 -8.1934,-2.1191 -9.2957,0 -51.506,-21.204 -64.238,-32.27 -8.6369,-7.506 -9.7421,-9.5521 -6.9746,-12.887 3.9568,-4.7677 1.1888,-11.098 -11.113,-25.422 -4.4457,-5.1764 -13.353,-19.006 -19.795,-30.73 l -11.711,-21.314 -16.918,0.99218 -16.918,0.9961 -24.725,-25.02 c -29.068,-29.414 -53.781,-48.678 -69.154,-53.916 -7.7486,-2.6402 -11.929,-5.9289 -14.047,-11.041 -3.8535,-9.3029 -20.093,-25.13 -29.365,-28.619 -2.3846,-0.89724 -4.1219,-1.4418 -5.2207,-1.4863 z m 175.25,147.56 15.252,18.604 c 1.8595,2.2685 3.5443,4.5315 4.8418,6.4805 0.64875,0.97447 1.1981,1.8628 1.6543,2.7168 0.45619,0.85395 1.0155,1.1242 1.1289,3.4922 0.0238,0.4924 0.37508,0.88017 -0.19922,2.8926 -0.28717,1.0062 -1.362,2.7113 -2.8945,3.4336 -1.5325,0.72219 -2.721,0.55775 -3.4688,0.42774 -1.4955,-0.25996 -2.1987,-0.65518 -3.3223,-1.166 -0.85096,-0.38687 -2.0553,-0.97593 -3.291,-1.5723 h -0.0312 l -1.0254,-0.50195 c -5.3127,-2.5646 -8.6774,-8.1424 -8.666,-14.092 l 0.008,-6.7617 0.0137,-13.953 z"
       fill="#ffffff"
       stroke-width="2.6027"
       id="path6004"
       style="display:inline"
       transform="matrix(0.26458,0,0,0.26458,0,161.53)"
       inkscape:label="dragon" />
  </g>
</svg>
